<!-- Generated by IcoMoon.io -->
<svg version="1.1" xmlns="http://www.w3.org/2000/svg" width="512" height="512" viewBox="0 0 512 512">
<g id="icomoon-ignore">
</g>
<path fill="#000" d="M256.608 0c0 0-160.608 190.736-160.608 352.368 0 161.648 159.392 159.632 159.392 159.632s160.608-2 160.608-160.624-159.392-351.376-159.392-351.376zM256 448c-53.008 0-96-42.992-96-96 0-33.936 17.824-63.408 44.432-80.416-7.632 10.192-12.432 24.48-12.432 40.416 0 3.312 0.304 6.512 0.688 9.664-0.144 2.144-0.688 4.16-0.688 6.336 0 4.112 0.672 8.048 1.216 12-0.752 3.888-1.216 7.888-1.216 12 0 35.344 28.656 64 64 64 4.112 0 8.112-0.464 12-1.2 3.968 0.544 7.888 1.2 12 1.2 2.176 0 4.192-0.528 6.32-0.704 3.152 0.4 6.368 0.704 9.68 0.704 15.936 0 30.224-4.8 40.416-12.416-17.008 26.592-46.48 44.416-80.416 44.416z"></path>
</svg>
