<!-- Generated by IcoMoon.io -->
<svg version="1.1" xmlns="http://www.w3.org/2000/svg" width="1024" height="1024" viewBox="0 0 1024 1024">
<g id="icomoon-ignore">
</g>
<path fill="#000" d="M496 64c-256.256 0-464 207.744-464 464s207.744 464 464 464 464-207.744 464-464-207.744-464-464-464zM344.064 123.328c-22.848 41.248-49.888 105.44-67.616 196.192h-159.456c49.632-89.568 129.984-159.776 227.072-196.192zM100.928 351.584h170.112c-7.488 46.976-12.512 100.096-13.28 160.384h-193.92c2.144-56.992 14.976-111.168 37.088-160.384zM63.616 544.032h194.304c0.736 60.576 6.016 113.312 13.504 160.384h-169.28c-22.208-49.376-36.416-103.168-38.528-160.384zM117.44 736.48h159.264c17.888 91.648 45.312 155.744 68.288 196.544-97.472-36.288-177.824-106.752-227.552-196.544zM481.984 960.288c-33.664-1.056-66.144-6.368-97.44-14.72-24.16-39.552-55.552-107.616-75.392-209.088h172.832v223.808zM481.984 704.416h-178.496c-7.488-47.008-12.672-99.808-13.472-160.384h191.936v160.384zM481.984 511.968h-192.128c0.8-60.352 5.856-113.376 13.344-160.384h178.784v160.384zM481.984 319.52h-173.504c19.68-100.736 50.912-168.512 75.008-208.8 31.584-8.512 64.48-13.92 98.496-15.040v223.84zM928.096 511.968h-189.856c-0.8-60.288-5.824-113.408-13.312-160.384h165.504c22.176 49.312 35.456 103.36 37.664 160.384zM874.304 319.52h-154.784c-17.568-89.792-44.224-153.6-66.912-194.88 94.944 36.928 172.864 106.72 221.696 194.88zM514.016 95.648c34.144 1.504 67.264 6.912 98.944 15.776 24.032 40.416 55.040 107.904 74.592 208.096h-173.536v-223.872zM514.016 351.584h178.784c7.488 47.008 12.544 100.032 13.344 160.384h-192.128v-160.384zM514.016 544.032h191.936c-0.736 60.576-5.984 113.376-13.472 160.384h-178.464v-160.384zM514.016 959.712v-223.264h172.864c-19.744 100.864-50.912 168.672-74.976 208.384-31.296 8.704-64.16 13.376-97.888 14.88zM651.744 931.648c22.848-40.832 49.92-104.512 67.584-195.2h154.72c-48.704 88.512-126.944 158.4-222.304 195.2zM889.44 704.416h-164.864c7.488-47.072 12.736-99.808 13.536-160.384h189.664c-2.144 57.184-16.256 110.976-38.336 160.384z"></path>
</svg>
