<!-- Generated by IcoMoon.io -->
<svg version="1.1" xmlns="http://www.w3.org/2000/svg" width="1024" height="1024" viewBox="0 0 1024 1024">
<g id="icomoon-ignore">
</g>
<path fill="#000" d="M606.688 573.216v-29.344h98.016v29.344h-98.016zM606.688 479.2h98.016v31.328h-98.016v-31.328zM606.688 416.48h98.016v31.36h-98.016v-31.36zM606.688 351.776h98.016v31.328l-98.016-1.984v-29.344zM606.688 285.088h98.016v33.344h-98.016v-33.344zM606.688 222.4h98.016v31.36h-98.016v-31.36zM663.456 772.896c0 103.872-84.224 188.096-188.096 188.096s-188.096-84.224-188.096-188.096c0-71.232 37.6-133.152 95.968-165.088v-418.784c0-51.936 44.096-94.016 96.032-94.016s94.048 42.080 94.048 94.016v423.52c54.016 33.088 90.144 92.416 90.144 160.352zM541.984 631.52v-442.496c0-34.624-28.064-62.688-62.688-62.688s-62.688 28.064-62.688 62.688v438.752c-57.408 23.296-97.984 79.36-97.984 145.12 0 86.56 70.176 156.736 156.736 156.736s156.704-70.176 156.704-156.736c0.032-62.656-36.96-116.256-90.080-141.376zM475.36 898.304c-69.28 0-125.408-56.16-125.408-125.408 0-59.808 41.952-109.632 97.984-122.176v-298.944h62.72v301.376c51.936 15.328 90.112 62.848 90.112 119.744 0 69.248-56.128 125.408-125.408 125.408z"></path>
</svg>
